<svg width="141" height="27" viewBox="0 0 141 27" fill="none" xmlns="http://www.w3.org/2000/svg">
<path d="M15.66 0.641994H19.836L10.701 21.203H9.33804L0.290039 0.641994H4.72704L10.092 13.199L15.66 0.641994ZM33.7872 15.345H24.3912C24.5072 16.998 26.1022 18.39 28.5672 18.39C29.9592 18.39 31.3512 17.868 32.1632 17.375L33.4682 19.869C31.9602 20.942 29.8142 21.377 28.1032 21.377C23.6082 21.377 20.6792 18.245 20.6792 14.533C20.6792 10.357 23.8982 7.65999 27.3492 7.65999C30.5972 7.65999 33.8162 9.97999 33.8162 14.62C33.8162 14.852 33.7872 15.113 33.7872 15.345ZM24.6232 13.112H30.0752C29.9592 11.488 28.6252 10.589 27.3782 10.589C26.0152 10.589 24.7392 11.778 24.6232 13.112ZM38.7483 21V8.06599H40.9813C41.3003 8.61699 41.6483 9.10999 41.9673 9.66099C42.4603 8.58799 43.8523 7.68899 45.0703 7.68899C45.9983 7.68899 46.6073 7.97899 46.9553 8.21099L46.3463 11.517L46.1433 11.575C45.7953 11.401 45.3313 11.227 44.6063 11.227C43.8233 11.227 42.9243 11.575 42.4313 12.329V21H38.7483ZM51.9745 21V8.06599H55.6575V21H51.9745ZM51.3655 3.57099C51.3655 2.20799 52.4965 1.10599 53.8015 1.10599C55.1355 1.10599 56.2665 2.20799 56.2665 3.57099C56.2665 4.93399 55.1355 5.97799 53.8015 5.97799C52.4965 5.97799 51.3655 4.93399 51.3655 3.57099ZM72.1606 21V10.937H66.5636V21H62.8806V10.937H60.7346V10.589L61.1116 8.06599H62.8806V6.47099C62.8806 -0.170006 70.6526 -1.35901 75.2346 2.38199L73.3786 4.96299C70.9136 2.72999 66.5636 2.78799 66.5636 6.49999V8.06599H75.8436V21H72.1606ZM93.5358 15.345H84.1398C84.2558 16.998 85.8508 18.39 88.3158 18.39C89.7078 18.39 91.0998 17.868 91.9118 17.375L93.2168 19.869C91.7088 20.942 89.5628 21.377 87.8518 21.377C83.3568 21.377 80.4278 18.245 80.4278 14.533C80.4278 10.357 83.6468 7.65999 87.0978 7.65999C90.3458 7.65999 93.5648 9.97999 93.5648 14.62C93.5648 14.852 93.5358 15.113 93.5358 15.345ZM84.3718 13.112H89.8238C89.7078 11.488 88.3738 10.589 87.1268 10.589C85.7638 10.589 84.4878 11.778 84.3718 13.112ZM103.978 21.406C100.585 21.406 97.8299 18.796 97.8299 14.504C97.8299 10.241 100.585 7.65999 103.949 7.65999C105.544 7.65999 107.487 8.52999 108.096 9.92199V0.641994L111.46 0.293994H111.808V21H109.546L108.56 19.115C107.835 20.391 105.892 21.406 103.978 21.406ZM104.79 18.39C106.385 18.39 108.067 16.94 108.067 14.504C108.067 11.952 106.443 10.676 104.79 10.676C103.195 10.676 101.571 11.923 101.571 14.504C101.571 17.085 103.166 18.39 104.79 18.39ZM121.467 0.293994V21H117.784V0.641994L121.148 0.293994H121.467ZM137.216 8.06599H140.986L132.373 26.626H128.719L128.429 26.336L131.822 19.463L126.167 8.06599H130.169L133.794 15.229L137.216 8.06599Z" fill="white"/>
</svg>
